<?xml version="1.0" standalone="no"?>
<!DOCTYPE svg PUBLIC "-//W3C//DTD SVG 20010904//EN"
 "http://www.w3.org/TR/2001/REC-SVG-20010904/DTD/svg10.dtd">
<svg version="1.0" xmlns="http://www.w3.org/2000/svg"
 width="127.000000pt" height="127.000000pt" viewBox="0 0 127.000000 127.000000"
 preserveAspectRatio="xMidYMid meet">
<metadata>
Created by potrace 1.14, written by Peter Selinger 2001-2017
</metadata>
<g transform="translate(0.000000,127.000000) scale(0.100000,-0.100000)"
fill="#000000" stroke="none">
<path d="M717 1264 c-1 -1 -19 -5 -40 -8 -45 -7 -92 -30 -127 -61 -14 -12 -47
-28 -75 -35 -237 -62 -401 -235 -451 -475 -10 -47 -4 -174 10 -228 40 -146
128 -263 267 -353 41 -27 66 -50 66 -61 0 -36 4 -38 56 -36 28 1 115 4 192 6
118 4 152 8 218 31 170 57 301 175 369 331 114 259 9 564 -244 715 l-58 34 6
57 6 57 -35 11 c-31 10 -153 22 -160 15z"/>
</g>
</svg>
